<?xml version="1.0" standalone="no"?><!DOCTYPE svg PUBLIC "-//W3C//DTD SVG 1.1//EN" "http://www.w3.org/Graphics/SVG/1.1/DTD/svg11.dtd"><svg t="1681061948857" class="icon" viewBox="0 0 1024 1024" version="1.1" xmlns="http://www.w3.org/2000/svg" p-id="21110" xmlns:xlink="http://www.w3.org/1999/xlink" width="16" height="16"><path d="M924.445538 159.201171l-105.894919-105.894919A115.847377 115.847377 0 0 0 736.646155 19.363338H181.399727A115.847377 115.847377 0 0 0 65.552351 135.210715V888.75114a115.847377 115.847377 0 0 0 115.847376 115.847377h661.141348a115.847377 115.847377 0 0 0 115.847377-115.847377V241.105635a115.847377 115.847377 0 0 0-33.923551-81.885101z" fill="#9AB3FF" p-id="21111"></path><path d="M181.399727 0.000581h555.246428A134.33881 134.33881 0 0 1 832.317539 39.616782l105.89492 105.914283a134.300085 134.300085 0 0 1 39.596838 95.57457V888.75114a135.365036 135.365036 0 0 1-135.210134 135.210134H181.399727A135.365036 135.365036 0 0 1 46.189593 888.75114V135.210715A135.365036 135.365036 0 0 1 181.399727 0.000581z m729.41443 172.948148L804.861149 66.995721A95.865011 95.865011 0 0 0 736.646155 38.726095H181.399727A96.600796 96.600796 0 0 0 84.915108 135.210715V888.75114a96.600796 96.600796 0 0 0 96.484619 96.48462h661.141348a96.600796 96.600796 0 0 0 96.48462-96.48462V241.105635a97.142953 97.142953 0 0 0-28.211538-68.156906z" fill="#262B3A" p-id="21112"></path><path d="M688.200537 429.853793H340.561592a57.93337 57.93337 0 0 1 0-115.847377h347.638945a57.93337 57.93337 0 0 1 0 115.847377z" fill="#396AFC" p-id="21113"></path><path d="M688.200537 449.21655H340.561592a77.296127 77.296127 0 0 1 0-154.572891h347.638945a77.296127 77.296127 0 0 1 0 154.572891z m-347.561494-115.847377a38.570613 38.570613 0 0 0 0 77.121862h347.561494a38.570613 38.570613 0 0 0 0-77.121862z" fill="#262B3A" p-id="21114"></path><path d="M630.112265 707.535095H340.561592a57.93337 57.93337 0 0 1 0-115.847377h289.550673a57.93337 57.93337 0 0 1 0 115.847377z" fill="#FFFFFF" p-id="21115"></path><path d="M630.112265 726.897852H340.561592a77.296127 77.296127 0 0 1 0-154.572891h289.550673a77.296127 77.296127 0 0 1 0 154.572891z m-289.473222-115.847377a38.570613 38.570613 0 0 0 0 77.121863h289.473222a38.570613 38.570613 0 0 0 0-77.121863z" fill="#262B3A" p-id="21116"></path></svg>