<?xml version="1.0" standalone="no"?><!DOCTYPE svg PUBLIC "-//W3C//DTD SVG 1.1//EN" "http://www.w3.org/Graphics/SVG/1.1/DTD/svg11.dtd"><svg t="1680927107528" class="icon" viewBox="0 0 1376 1024" version="1.1" xmlns="http://www.w3.org/2000/svg" p-id="1494" xmlns:xlink="http://www.w3.org/1999/xlink" width="21.5" height="16"><path d="M320.096 301.952V56.992C320.096 25.504 345.6 0 377.056 0h925.824c31.456 0 56.96 25.536 56.96 57.024v244.96a636.896 636.896 0 0 1-186.56 450.368l-217.28 217.312a164.096 164.096 0 0 1-232.032 0l-217.344-217.28a636.992 636.992 0 0 1-186.56-450.4" fill="#A267F8" p-id="1495"></path><path d="M818.24 225.536l-46.976 95.2a24.288 24.288 0 0 1-18.24 13.248l-105.056 15.264a24.224 24.224 0 0 0-13.44 41.28l76.032 74.112c5.664 5.6 8.32 13.6 6.976 21.472l-17.984 104.64a24.256 24.256 0 0 0 35.2 25.536l93.92-49.408a24.256 24.256 0 0 1 22.56 0l93.984 49.408a24.224 24.224 0 0 0 35.136-25.568l-17.92-104.608a24.224 24.224 0 0 1 6.976-21.44l76-74.144a24.224 24.224 0 0 0-13.44-41.28l-105.056-15.264a24.288 24.288 0 0 1-18.24-13.248l-46.976-95.2a24.224 24.224 0 0 0-43.456 0" fill="#FFFFFF" p-id="1496"></path><path d="M472.704 640.192H185.504V526.72a143.744 143.744 0 0 1 143.616-143.552 143.744 143.744 0 0 1 143.584 143.552v113.472zM0 700.736v256.448c0 33.408 27.072 60.544 60.512 60.544h537.184a60.544 60.544 0 0 0 60.544-60.544v-256.448a60.544 60.544 0 0 0-60.544-60.544h-26.304V526.72c0-133.6-108.672-242.24-242.24-242.24-133.632 0-242.368 108.672-242.368 242.24v113.472h-26.24A60.512 60.512 0 0 0 0 700.736z" fill="#F83CB6" p-id="1497"></path><path d="M597.728 640.192h-26.304V526.72c0-133.6-108.704-242.24-242.304-242.24-3.04 0-6.016 0.32-9.024 0.416v17.088c0 27.328 1.92 54.528 5.408 81.376 1.216 0 2.4-0.16 3.616-0.16a143.744 143.744 0 0 1 143.616 143.552v113.44h-55.2a637.44 637.44 0 0 0 89.088 112.16l151.648 151.552v-203.2a60.544 60.544 0 0 0-60.544-60.512" fill="#7E42B9" p-id="1498"></path></svg>