<?xml version="1.0" standalone="no"?><!DOCTYPE svg PUBLIC "-//W3C//DTD SVG 1.1//EN" "http://www.w3.org/Graphics/SVG/1.1/DTD/svg11.dtd"><svg t="1681061839396" class="icon" viewBox="0 0 1024 1024" version="1.1" xmlns="http://www.w3.org/2000/svg" p-id="20614" xmlns:xlink="http://www.w3.org/1999/xlink" width="16" height="16"><path d="M768 128a128 128 0 0 1 128 128v512a128 128 0 0 1-128 128H256a128 128 0 0 1-128-128V256a128 128 0 0 1 128-128h512z m29.12 205.824a32 32 0 0 0-45.248 2.304l-270.08 298.88-169.664-157.184-4.608-3.52a32 32 0 0 0-38.912 50.496L462.08 704l4.608 3.584a32 32 0 0 0 40.896-5.568l291.84-323.008 3.456-4.608a32 32 0 0 0-5.76-40.576z" fill="#FF8F49" p-id="20615"></path></svg>