<?xml version="1.0" standalone="no"?>
<!DOCTYPE svg PUBLIC "-//W3C//DTD SVG 1.1//EN" "http://www.w3.org/Graphics/SVG/1.1/DTD/svg11.dtd"><svg t="1680921132435"
	class="icon" viewBox="0 0 1264 1024" version="1.1" xmlns="http://www.w3.org/2000/svg" p-id="2177"
	xmlns:xlink="http://www.w3.org/1999/xlink" width="19.75" height="16">
	<path
		d="M129.355294 0h986.895059c23.04 0 41.743059 18.672941 41.743059 41.743059v590.757647H87.582118V41.743059C87.582118 18.672941 106.255059 0 129.355294 0"
		fill="#F83CB6" p-id="2178"></path>
	<path
		d="M1245.575529 632.500706H0v165.436235h237.808941l43.971765-77.854117H960.451765l44.875294 77.854117h240.24847z"
		fill="#F9D11F" p-id="2179"></path>
	<path
		d="M122.398118 1002.315294h145.287529l87.943529-155.708235h531.727059l89.750589 155.708235h146.070588l-117.850353-204.348235H237.808941z"
		fill="#A267F8" p-id="2180"></path>
	<path d="M281.780706 720.112941l-43.971765 77.824H1005.327059l-44.875294-77.824z" fill="#F9D11F" p-id="2181"></path>
	<path
		d="M282.202353 301.658353h681.170823v-126.494118H282.202353zM408.696471 506.006588h428.182588v-126.494117H408.696471z"
		fill="#FFFFFF" p-id="2182"></path>
</svg>
